<svg width="33" height="36" viewBox="0 0 33 36" fill="none" xmlns="http://www.w3.org/2000/svg">
<path d="M12.4781 32.5852C13.2384 34.2946 14.9239 35.5 16.9134 35.5C18.9028 35.5 20.5884 34.2946 21.3487 32.5852C19.9458 32.6539 18.487 32.7 16.9134 32.7C15.3398 32.7 13.881 32.6539 12.4781 32.5852Z" fill="#10715A"/>
<path d="M32.3539 25.175C30.5086 22.8481 27.4119 18.2744 27.4119 13.8C27.4119 9.36341 24.5615 5.37197 20.4119 3.90477C20.3615 2.01757 18.8102 0.5 16.9132 0.5C15.0149 0.5 13.4651 2.01757 13.4146 3.90477C9.26362 5.37197 6.41323 9.36341 6.41323 13.8C6.41323 18.2759 3.31786 22.8481 1.47126 25.175C0.855268 25.952 0.664818 26.9781 0.96308 27.9204C1.25428 28.8401 1.97944 29.5527 2.90346 29.8244C4.52187 30.3019 7.17482 30.8394 11.2209 31.1137C12.9722 31.2314 14.8552 31.3 16.9134 31.3C18.9699 31.3 20.853 31.2314 22.6042 31.1137C26.6517 30.8394 29.3034 30.3019 30.9231 29.8244C31.8471 29.5527 32.5709 28.8403 32.8621 27.9204C33.1602 26.9781 32.9685 25.952 32.3539 25.175Z" fill="#10715A"/>
</svg>
